<?xml version="1.0" encoding="UTF-8"?><svg id="a" xmlns="http://www.w3.org/2000/svg" viewBox="0 0 266.02 312.6"><defs><style>.b{fill:#87ba26;}.c{fill:#ed7e2a;}.d{fill:#f2a134;}.e{fill:#e86b29;}.f{fill:#e96e26;}.g{fill:#6ab32d;}.h{fill:#eb7729;}.i{fill:#f19730;}.j{fill:#fcfbf5;}.k{fill:#5cb035;}.l{fill:#49aa38;}.m{fill:#e66c2c;}.n{fill:#e66125;}.o{fill:#ef8c2e;}</style></defs><path class="o" d="M212.87,150.4c-4.68,5.8-10.1,10.8-16.17,15.12-.07-1.47-1.12-1.47-2.19-1.46h0c.24-.49,.49-.97,.73-1.45,.52-.1,1.14-.08,1.1-.88,0-.08-.14-.22-.23-.23-.8-.05-.78,.57-.88,1.09-.99,0-1.81-.05-2.25-1.27-1.06-2.9-3.11-4.69-6.25-5.21-1.51-.25-3.69-.32-4.34-1.3-2.67-4.01-7.12-3.27-10.74-4.73-2.29-.92-5.16-1.3-5.85-4.8-.26-1.31-1.58-3.6-4.1-3.06-.46,0-.91,0-1.37,0-3.69-5.66-6.9-6.91-13.15-5.11-2.83-.95-6-1.07-8.15-3.64-.39-.47-1.33-.46-2.01-.71-3.44-1.29-6.71-2.8-9.79-4.9-3.12-2.13-5.22-5.74-9.16-6.61-2.96-.66-5.93-1.02-7.48-4.23-.51-1.06-1.84-.9-2.93-1.05-4.32-.61-8.44-2.25-11.25-5.45-2.07-2.35-3.79-2.04-5.9-1.11-1.02,.45-2.09,1.34-2.63-.02-.42-1.05,.83-1.59,1.8-2.23,1.91-1.27,4.23-1.07,6.3-1.92-1.08-1.79-1.97-2.51-3.85-1.19-2.07,1.46-4.49,2.21-7.07,1.06,3.19-2.59,7.1-3.94,10.7-6.01-2.96-.73-13.93,1.88-19.88,4.45-6.36,2.74-12.46,5.97-18.56,9.35,4.74-13.21,12.46-24.18,23.21-32.98,5.21-4.26,10.61-8.29,17.07-10.57,1.69,1.37,3.57,1.04,5.91,.1-2,3.02-1.84,4.1,1.62,4.45,3.96,.4,6.3,4.43,10.04,5.69-1.34,3.52-2.41,7.07-.7,10.78,3.05,6.6,8.18,8.57,16.62,6.44,.44,1.97-2.02,1.28-2.65,3.24,3.65-.95,5.84,.47,7.04,3.65,.31,.82,1.5,.57,2.33,.69,3.59,.52,7.14,.94,8.6,5.21,.44,1.29,1.88,2.19,3.56,2.04,1.29-.12,2.1,.73,3.14,1.34,2.87,1.68,4.62,5.23,8.31,5.39,8.02,.35,12.51,7.13,18.95,10.38,1.98,1,3.63,2.38,6.01,2.61,3.1,.29,5.98,.99,6.04,5.17,.03,2.02,1.61,2.72,3.57,2.8,2.78,.11,5.45,1.27,7.06,3.27,2.75,3.39,7.04,4.61,9.82,7.81Z"/><path class="n" d="M172.05,210.7c-8.01,5.6-17.15,8.42-26.6,9.96-22.34,3.64-42.85-1.15-61.22-14.5-11.41-8.3-19.76-19.14-25.82-31.81-.56-1.16-.83-2.49-2.28-3.68-.32,7.25,1.91,13.52,4.66,19.74-12.94-.75-26.07-8.47-27.78-18.96-.94-5.78,.22-11.13,2.41-16.3,3.92-9.24,9.78-17.19,17-24.16,0,1.18,.67,2.75-.39,3.45-3.83,2.54-5.07,6.75-7.28,10.36-.79,1.28-.46,1.63,.54,2.15,3.34,1.75,4.96-.69,6.65-2.97,1,1.37,.51,2.73,.57,3.99,.06,1.29,.19,2.59,1.58,2.95,2.35,.6,4.22,2.21,6.46,2.9,5.82,1.8,10.49,5.61,15.04,9.25,2.61,2.09,5.33,3.42,8.24,4.52,1.72,.65,3.12,1.26,3.58,3.12,.69,2.78,2.23,4.15,5.26,4.53,2.16,.27,4.31,.33,6.46,.45h0c1.31,2.24,3.07,2.31,4.27,.23,.91-1.57,3.21-2.73,3.49-2.57,3.06,1.72,6.45,.18,9.46,1.23,1.26,.44,2.9,.71,3.17,2.53-.45-.14-.93-.23-1.35-.44-5.58-2.72-11.94-1.57-15.85,2.88-4.09,4.65-4.5,11.4-1.01,16.42,3.46,4.98,9.45,6.77,15.33,4.84,4.89-1.61,7.15-5.4,8.78-9.82,.3-.64,.5-1.36,.91-1.92,.76-1.02-.12-3.48,2.24-3,1.86,.37,1.03,2.19,1.1,3.39,.1,1.65-.23,3.17,2.49,2.43,1.93-.52,2.43,1.09,1.37,2.41-1.16,1.45-.81,2.96-.9,4.48-.13,2.22,.62,2.65,2.43,1.24,1.53-1.18,2.94-1.17,4.5,.3,.89,.84,2.37,1.08,3.6,1.54,4.79,1.78,9.05,4.62,13.42,7.17,1.77,1.04,2.63,2.34,4.26,.17,.63-.84,1.76-1.07,2.58-.32,.95,.87,.16,1.84-.38,2.58-.68,.94-2.09,1.33-2.04,2.81-.31,.1-.63,.19-.94,.28l.18,.27,.77-.54c2.66-.33,5.42-1.06,7.35-2.66,1.37-1.13,2.38-.94,3.68-.95Zm-45.58-18.5c.11,1.39,.19,2.79,.34,4.18,.1,.86-.44,2.26,.97,2.27,1.36,.01,1.83-1.08,1.97-2.49,.24-2.32-2.4-2.36-3.28-3.96Z"/><path class="d" d="M115.16,79.61c-3.74-1.26-6.07-5.29-10.04-5.69-3.46-.35-3.62-1.43-1.62-4.45-2.34,.94-4.22,1.26-5.91-.1,4.16-3.06,9.14-4.24,13.94-5.49,12.46-3.26,25.11-3.48,37.72-.64,21.9,4.94,38.69,17.12,50.83,35.93,2.66,4.12,4.84,8.5,7.21,13.24,.79-4.8-.37-10.03-4.12-19.49,10.31-.06,26.64,6.78,28.04,20.86,.45,4.5-.54,8.87-2.56,12.96-.05-.44-.1-.88-.15-1.33-.14,.09-.41,.24-.4,.28,.15,.4,.34,.79,.52,1.18,.04,1.21-.43,2.18-1.37,2.93-.28-.39-.75-.73-1.03-.22-.4,.74,.31,.86,.84,.98-1.08,2.43-1.78,5.08-4.02,6.82-.63-2.43-1.07-4.94-1.99-7.25-.43-1.09-.94-2.67-2.44-2.94-5.21-.92-8.92-4.55-13.12-7.25-1.74-1.12-3.23-2.21-5.4-2.58-5.64-.95-5.95-1.45-6.31-6.6-.09-1.23-.12-2.25-1.87-1.3-3.14,1.71-6.23,.1-8.97-.98-2.16-.85-4.03-4.65-4.64,.98-.02,.18-1.19-.69-1.83,0l-.13-1.47c1.26-1.09,.46-2.15-.23-2.99-.67-.82-1.15-.1-1.49,.54l-1.36-.79c1.44-3.92-1.45-5.09-4.08-6.43-.1-.05-.16-.2-.27-.24-3.36-1.25-6.07-3.66-9.47-5.01-2.63-1.04-6.08,.05-7.92-2.76-1.07-1.63-2.67-2.34-4.27-2.21-3.06,.25-3.23-1.38-2.99-3.61,.04-.36,.02-.72,0-1.08-.05-.94,.12-2.04-1.24-2.23-1.06-.15-1.35,.54-1.71,1.41-.85,2.05-1.94,2-2.93,.05-.32-.63-.86-.78-1.48-.84-.89-1.26-1.66-2.63-2.7-3.75-5.52-5.95-12.85-5.32-19.03,1.55Zm108.27,51.24c-.09,.2-.29,.45-.23,.6,.06,.15,.37,.19,.58,.28,.09-.2,.29-.45,.23-.59-.06-.15-.37-.19-.58-.28Zm-46.6-28.39c-.09,.2-.29,.45-.23,.59,.06,.15,.37,.19,.58,.28,.09-.2,.29-.45,.23-.59-.06-.15-.37-.19-.58-.28Z"/><path class="h" d="M181.97,181.48c8.7-2.32,16.42-6.75,24.99-11.73-5.77,14.71-14,26.41-26.23,35.17-.86-1.27-1.79-.43-2.42,.12-1.75,1.52-1.85-.79-2.02-1.12-.86-1.72,.76-1.05,1.47-1.27,.26,.29,.41,.94,.95,.27l-.94-.27c1.36-2.06,1.75-3.76-1.31-4.68-1.35-.4-2.58-.53-3.88-.03-1.07,.41-2.97,.43-2.87-.41,.55-4.93-3.34-5.79-6.37-6.77-3.5-1.13-6.22-3.47-9.49-4.86-.43-.19-.94-.22-1.41-.3-2.59-.46-5.22-.58-5.9-4.11-.23-1.18-1.66-2.41-3.17-2.77-3.02-.72-5.04-3.55-8.37-3.75-1.27-.08-2.35-1.35-2.34-2.88,.01-2.33-1.54-2.61-3.33-2.97-1.97-.4-4.18-.21-5.85-1.53-3.01-2.37-6.75-2.92-10.19-4.14-1.65-.59-2.55-1.12-2.5-2.87,.08-2.83-1.49-3.66-4.11-3.87-2.23-.18-5.05-.23-6.33-2.19-2.1-3.21-5.38-3.58-8.42-4.13-3.53-.64-5.27-3.42-7.85-5.18-1.55-1.06-.77-2.65-.96-4.01-.1-.73-.06-1.57-.99-1.7-.99-.14-1.59,.48-1.8,1.41-.13,.59-.08,1.21-.2,1.8-.21,1.02-.83,2.02-1.81,2.03-1.53,.02-1.08-1.45-.97-2.22,.39-2.68-1.21-3.97-3.32-4.34-2.68-.48-2.39-1.3,.1-3.1-5.83-.76-10.35-3.48-15.59-3.66-3.58-.12-3.58-.22-2.43-3.96,1.21-2.71,4.03-3.66,6.07-5.44,3.64-3.15,6.74-6.99,11.24-9.08-.72,1.56-.71,3.08,.24,4.55h0c-1.11,.02-2.29,.07-2.08,1.63,.24,1.79,1.75,1.11,2.81,1.28,.18,.84-.43,1.92,.73,2.53,1.16-.61,.55-1.68,.73-2.53,.69,.19,1.37,.49,2.08,.56,3.65,.41,7.23,.67,10.04,3.71,1.07,1.16,3.08,2.44,4.89,1.26,1.99-1.3,3.93-.57,6.18-.63-2.79,1.55-.06,3.96-1.26,5.66-2.33-2.44-5.08-3.38-8.39-2.4-.38-.05-.76-.1-1.15-.15l-.31-.16,.3,.17c0,.24,0,.48,0,.72-.68,.68-1.46,1.28-2.02,2.04-1.78,2.42-1.32,7.75,.71,9.05,4.83,3.08,8.38,2.57,10.68-1.58,.88-1.59,1.65-3.23,1.45-5.14,5.87,3.56,11.69,7.22,17.65,10.63,2.79,1.6,6.06,2.39,8.72,4.14,3.13,2.07,7.1,2.89,9.53,5.85,1.56,1.9,2.37,2.99,3.99,.18,.59-1.02,2.05-1.56,3.23-.86,1.2,.71,.15,1.58-.14,2.46-.41,1.24-2.85,2.3-1.26,3.51,1.51,1.15,2.72-.75,3.73-1.95,.16-.18,.61-.12,1.17-.21,.1,1.85-.27,3.92,2.13,4.5,4.16,1.02,8.37,1.93,10.48,6.39,.43,.92,1.58,.92,2.56,1.07,5.67,.89,9.6,4.88,14.13,7.93-.93,.25-2.05-.42-2.68,.91,1.09,.79,1.93,.85,2.68-.91,.66,.35,1.16,.89,1.43,1.65-2.53,3.03-6.64,3.56-9.84,6.13,5.54-.37,10.62-1.28,15.44-3.42Zm-86.47-54.57l-.32-.15,.29,.18c.3,.31,.6,.63,.9,.94l.29-.43c-.38-.18-.77-.36-1.15-.55Zm-2.52,17.84c.05-.85-.49-1.01-1.11-1.02-.8,0-1.36,.33-1.41,1.21-.03,.61,.02,1.32,.78,1.3,.9-.03,1.4-.75,1.74-1.49Zm-7.43-15.19c.41-2.12,1.01-3.39-.49-4.62-.6,1.46-.74,2.63,.49,4.62Z"/><path class="f" d="M56.09,127.43c-1.15,3.74-1.16,3.84,2.43,3.96,5.24,.18,9.76,2.9,15.59,3.66-2.49,1.8-2.78,2.62-.1,3.1,2.12,.38,3.72,1.67,3.32,4.34-.11,.78-.56,2.24,.97,2.22,.98-.01,1.6-1.01,1.81-2.03,.12-.59,.07-1.22,.2-1.8,.21-.93,.82-1.54,1.8-1.41,.93,.13,.89,.97,.99,1.7,.19,1.36-.59,2.96,.96,4.01,2.58,1.76,4.32,4.54,7.85,5.18,3.04,.55,6.32,.92,8.42,4.13,1.28,1.96,4.1,2.01,6.33,2.19,2.62,.21,4.19,1.04,4.11,3.87-.05,1.75,.85,2.29,2.5,2.87,3.44,1.22,7.18,1.77,10.19,4.14,1.67,1.32,3.88,1.13,5.85,1.53,1.79,.36,3.34,.64,3.33,2.97,0,1.54,1.07,2.8,2.34,2.88,3.33,.21,5.35,3.03,8.37,3.75,1.51,.36,2.94,1.59,3.17,2.77,.68,3.53,3.32,3.65,5.9,4.11,.47,.08,.98,.11,1.41,.3,3.27,1.4,5.99,3.73,9.49,4.86,3.03,.98,6.92,1.84,6.37,6.77-.09,.84,1.8,.82,2.87,.41,1.31-.5,2.54-.38,3.88,.03,3.06,.91,2.66,2.62,1.31,4.68h0c-.71,.22-2.34-.45-1.47,1.27,.17,.34,.27,2.65,2.02,1.12,.63-.55,1.56-1.39,2.42-.12-2.52,2.49-5.36,4.49-8.68,5.78-1.29,0-2.31-.18-3.68,.95-1.93,1.59-4.69,2.33-7.35,2.66l-.02-.02c-.06-1.48,1.36-1.88,2.04-2.81,.54-.74,1.32-1.71,.38-2.58-.82-.75-1.95-.52-2.58,.32-1.63,2.18-2.49,.87-4.26-.17-4.36-2.55-8.62-5.39-13.42-7.17-1.23-.46-2.71-.7-3.6-1.54-1.56-1.48-2.97-1.49-4.5-.3-1.81,1.41-2.57,.98-2.43-1.24,.09-1.52-.25-3.02,.9-4.48,1.06-1.32,.56-2.93-1.37-2.41-2.72,.73-2.39-.78-2.49-2.43-.07-1.2,.75-3.01-1.1-3.39-2.36-.48-1.48,1.99-2.24,3-.41,.56-.61,1.27-.91,1.92,.52-5.68-1.38-10.34-5.9-13.88-.27-1.82-1.91-2.09-3.17-2.53-3.01-1.05-6.4,.5-9.46-1.23-.28-.16-2.59,1-3.49,2.57-1.2,2.08-2.96,2.01-4.27-.23,1.19-.12,1.59-.81,1.3-1.9-.06-.23-.55-.59-.66-.53-1.08,.56-.46,1.61-.64,2.44-2.15-.12-4.3-.18-6.46-.45-3.03-.38-4.57-1.75-5.26-4.53-.46-1.85-1.86-2.46-3.58-3.12-2.91-1.11-5.64-2.44-8.24-4.52-4.56-3.65-9.22-7.46-15.04-9.25-2.25-.69-4.12-2.31-6.46-2.9-1.39-.35-1.52-1.66-1.58-2.95-.05-1.27,.43-2.63-.57-3.99-1.69,2.28-3.31,4.72-6.65,2.97-1-.52-1.33-.87-.54-2.15,2.22-3.61,3.45-7.82,7.28-10.36,1.06-.7,.39-2.27,.39-3.45,.93-1.5,2.12-2.72,3.68-3.57Zm66.15,44.64q3.82,1.02,7.85,5.43c.48,.53,1.14,1.04,1.89,.79,.7-.23,.58-.9,.38-1.51-1.65-5.04-4.02-6.28-10.11-4.71Z"/><path class="c" d="M74.37,120.38c-1.06-.17-2.57,.5-2.81-1.28-.21-1.57,.97-1.62,2.08-1.63l.31,.17-.3-.17c-.96-1.47-.97-2.99-.24-4.55l.06,.09c.28-.3,.56-.6,.83-.9,3.08-2.38,6.14-4.79,9.79-6.29,.12-.05,.25-.12,.37-.18,.21-.17,.42-.34,.63-.51,2.58,1.16,5.01,.4,7.07-1.06,1.87-1.32,2.77-.61,3.85,1.19-2.07,.84-4.39,.65-6.3,1.92-.97,.64-2.21,1.18-1.8,2.23,.54,1.36,1.61,.47,2.63,.02,2.11-.93,3.83-1.24,5.9,1.11,2.81,3.19,6.93,4.83,11.25,5.45,1.09,.16,2.42,0,2.93,1.05,1.55,3.21,4.52,3.56,7.48,4.23,3.94,.88,6.04,4.48,9.16,6.61,3.08,2.1,6.36,3.61,9.79,4.9,.67,.25,1.62,.24,2.01,.71,2.15,2.57,5.32,2.69,8.15,3.64-.33,.75-1.04,.8-1.71,.92-1.46-.51-2.74,.38-4.12,.54l-.17-.3-.14,.14,.3,.17c-.08,1.24,1.26,1.54,1.63,2.48-.25,.93-.56,1.86-.74,2.81-1.12,6.03,4.39,12.3,10.29,11.3,3.87-.65,6.46-3.38,7.88-7.08,.44-.02,1.04,1.59,1.24,.07,.26-1.94,.05-3.95,.04-5.93,2.52-.54,3.84,1.75,4.1,3.06,.69,3.5,3.56,3.88,5.85,4.8,3.61,1.46,8.06,.72,10.74,4.73,.65,.97,2.82,1.05,4.34,1.3,3.15,.52,5.2,2.31,6.25,5.21,.44,1.22,1.26,1.28,2.25,1.27h0c-.24,.49-.49,.98-.73,1.46l-.16,.3,.17-.3c1.06-.02,2.12-.01,2.19,1.46-3.49,3.48-7.73,6-11.64,8.93-1.37,1.08-3.56,.79-4.46,2.67l.03-.03c-.43,.04-.85,.09-1.28,.13-.74-.02-1.36,.15-1.52,1.01-.29,.7-.92,.51-1.46,.56-.27-.76-.77-1.31-1.52-1.62-4.43-3.1-8.37-7.08-14.04-7.97-.99-.16-2.13-.16-2.56-1.07-2.11-4.46-6.31-5.37-10.48-6.39-2.4-.59-2.04-2.65-2.13-4.5-.56,.09-1.02,.02-1.17,.21-1.01,1.21-2.22,3.11-3.73,1.95-1.59-1.22,.86-2.28,1.26-3.51,.29-.88,1.34-1.75,.14-2.46-1.17-.7-2.64-.16-3.23,.86-1.62,2.81-2.43,1.73-3.99-.18-2.43-2.96-6.4-3.78-9.53-5.85-2.66-1.76-5.93-2.55-8.72-4.14-5.96-3.41-11.77-7.07-17.65-10.63l-.07-.17,.13-.14-.69-1.15c-.21-.36-.43-.72-.64-1.08,1.21-1.7-1.53-4.11,1.26-5.66-2.25,.06-4.19-.67-6.18,.63-1.81,1.18-3.81-.1-4.89-1.26-2.81-3.04-6.39-3.3-10.04-3.71-.7-.08-1.38-.37-2.08-.56h0c-.19-.38-.31-1.03-.57-1.08-.79-.17-.78,.55-.89,1.08h0Zm89.56,26.62c-.65,.07-.67,.57-.67,1.04,0,.47,.01,1.03,.65,1.04,.63,0,.67-.56,.67-1.02,0-.47-.02-.97-.65-1.05Z"/><path class="i" d="M136.89,81.81c.62,.06,1.15,.21,1.48,.84,1,1.95,2.09,1.99,2.93-.05,.36-.88,.65-1.56,1.71-1.41,1.36,.19,1.19,1.28,1.24,2.23,.02,.36,.04,.73,0,1.08-.25,2.23-.07,3.86,2.99,3.61,1.6-.13,3.2,.58,4.27,2.21,1.84,2.81,5.3,1.72,7.92,2.76,3.4,1.35,6.11,3.76,9.47,5.01,.1,.04,.17,.18,.27,.24,2.63,1.34,5.51,2.51,4.08,6.43-4.12,.19-6.47,2.6-5.46,5.65,.58,1.77,1.79,2.7,3.76,2.83,2.82,.17,4.25-1.24,4.91-3.77,.64-.69,1.81,.17,1.83,0,.61-5.63,2.47-1.83,4.64-.98,2.74,1.08,5.83,2.69,8.97,.98,1.75-.95,1.78,.06,1.87,1.3,.36,5.15,.67,5.65,6.31,6.6,2.17,.37,3.66,1.46,5.4,2.58,4.2,2.7,7.91,6.33,13.12,7.25,1.5,.27,2.01,1.85,2.44,2.94,.92,2.32,1.35,4.82,1.99,7.25-2.17,4.78-5.66,8.55-9.34,12.18-.31,.26-.62,.52-.93,.79l.1,.06c-2.78-3.2-7.07-4.42-9.82-7.81-1.62-2-4.29-3.16-7.06-3.27-1.95-.08-3.54-.78-3.57-2.8-.06-4.18-2.94-4.88-6.04-5.17-2.38-.22-4.03-1.61-6.01-2.61-6.44-3.25-10.93-10.02-18.95-10.38-3.68-.16-5.44-3.72-8.31-5.39-1.04-.61-1.85-1.46-3.14-1.34-1.69,.15-3.12-.75-3.56-2.04-1.46-4.27-5.01-4.69-8.6-5.21-.83-.12-2.02,.13-2.33-.69-1.2-3.17-3.39-4.6-7.04-3.65,.63-1.96,3.09-1.27,2.65-3.24,2.52-1.88,4.5-4.21,5.91-7.03,1.2-2.13,.99-4.31,.17-6.49l-.27-1.49Zm3.54,4.07c-.31,1.19-1.11,2.49,.63,3.87,.22-1.6,.66-2.78-.63-3.87Zm-6.72,12.97c.19-.57-.08-.81-.44-.77-.28,.03-.64,.24-.79,.47-.27,.44,.13,.61,.46,.6,.29-.01,.57-.22,.77-.3Z"/><path class="b" d="M146.61,18.85c3.81-8.22,10.41-13.27,18.85-15.79,9.24-2.76,18.76-3.68,28.39-2.65,5.25,.56,7.69,3.36,6.87,8.56-1.76,11.13-4.11,22.13-11.36,31.31-2.15,.56-2.93-.88-3.37-2.91-1.63,1.32-3.04,4.8-4.4,.33-.18-.6-1.38-.88-2.11-1.31-7.03-4.25-14.67-7.25-22.19-10.44-4.12-1.75-7.84-3.64-10.69-7.09Z"/><path class="m" d="M208,270.1c0-6.77,.18-13.54-.08-20.29-.12-3.03,1.15-3.19,3.6-3.33,2.71-.15,3.25,.75,3.23,3.25-.1,13.57,0,27.15-.06,40.72,0,1.47,1.03,3.6-1.71,4.02-4.77,.74-6.15,.13-7.03-3.22-2.18-8.3-4.34-16.61-6.52-24.91-.14-.55-.39-1.08-.66-1.79-1.33,1.19-.81,2.53-.82,3.68-.06,7.76-.16,15.52,0,23.27,.06,2.97-1.54,2.93-3.67,3.01-2.31,.09-3.51-.27-3.49-3.08,.13-13.94,.11-27.88,0-41.82-.02-2.46,.82-3.07,3.14-3.07,6.8,0,6.74-.08,8.48,7.06,1.35,5.57,2.87,11.11,4.31,16.66,.42-.05,.84-.11,1.26-.16Z"/><path class="m" d="M30.96,285.04c0,1.57-.01,3.15,0,4.72,.05,4.75,.05,4.61-4.57,4.61-2.39,0-3.08-.75-3.06-3.12,.1-13.93,.1-27.85,.01-41.78-.01-2.16,.52-3.08,2.81-2.94,4.1,.26,8.23,.14,12.32,.51,3.61,.33,6.39,2.57,6.76,6.07,.62,5.74,2.37,11.87-2.57,16.84-.77,.78-.64,1.38,.17,2.09,2.75,2.38,2.96,5.64,3.07,8.96,.13,3.74-.39,7.51,.42,11.23,.29,1.34-.04,2.08-1.56,2.06-6.5-.08-6.43,1.1-6.59-5.6-.08-3.27-.1-6.54-.14-9.81-.03-2.4-1.59-3.46-3.63-3.84-2.03-.38-3.62,.05-3.51,2.71,.1,2.42,.02,4.84,.02,7.27h.03Zm-.12-24.34c0,1.21,0,2.41,0,3.62,0,3.75,1.28,4.58,4.86,3.36,1.47-.5,2.24-1.45,2.29-2.89,.09-2.65,.15-5.31,0-7.96-.18-3.21-2.59-3.19-5.01-3.28-2.99-.1-1.98,2.06-2.13,3.52-.12,1.19-.02,2.41-.03,3.62Z"/><path class="m" d="M72.78,266.34c0,5.94,.24,11.89-.06,17.81-.46,9.18-9.22,13.84-17.33,9.51-3.1-1.66-4.52-4.36-4.88-7.6-.36-3.24-.37-6.52-.38-9.79-.04-8.6,.09-17.2-.05-25.8-.05-2.86,.52-4.02,3.77-3.97,3.28,.04,4.3,.78,4.21,4.22-.26,9.93-.1,19.87-.09,29.81,0,1.33,.07,2.66,.16,3.99,.14,2.09,1.07,3.3,3.39,3.4,2.31,.1,3.52-1.14,3.73-3.09,.32-2.87,.26-5.8,.27-8.7,.03-8.97,.11-17.93-.05-26.9-.06-3.31,2.09-2.53,3.89-2.63,1.91-.11,3.58-.2,3.49,2.67-.18,5.69-.05,11.39-.05,17.08h-.02Z"/><path class="m" d="M173.93,246.64c1.59,0,2.57,.08,3.53-.02,2.09-.21,2.87,.59,3.19,2.77,2.06,13.74,4.33,27.46,6.45,41.19,.2,1.28,1.66,3.18-1.07,3.71-4.77,.94-6.16,.33-6.65-2.74-.41-2.62,.65-6.05-4.24-5.85-5.58,.24-5.82-.08-6.17,5.57-.29,4.64-3.52,3.01-5.82,3.06-3.05,.08-1.45-2.33-1.29-3.44,2.05-13.62,4.43-27.19,6.33-40.83,.66-4.71,3.73-3.27,5.73-3.43Zm.43,10.65l-.51,.02c-1.04,6.59-2.05,13.19-3.13,19.77-.36,2.21,1.18,2.22,2.41,1.9,1.46-.37,4.48,1.58,4.19-1.5-.62-6.77-1.94-13.47-2.97-20.19Z"/><path class="e" d="M114.82,270.72c0-7.03,.1-14.07-.05-21.1-.05-2.45,.79-3.22,3.13-3.07,3.51,.21,7.05-.01,10.53,.36,5,.54,8.1,3.91,8.42,8.91,.2,3.14,.15,6.3,.11,9.46-.09,7.38-3.48,11.01-10.86,11.07-3.04,.02-3.98,.88-3.78,3.89,.26,3.99-.01,8,.08,12,.04,1.77-.57,2.26-2.31,2.24-5.35-.05-5.31,.03-5.28-5.21,.04-6.18,.01-12.37,.01-18.55Zm7.54-9.37c0,1.57-.12,3.16,.04,4.72,.13,1.33-.97,3.42,1.76,3.5,2.29,.07,4.64-.07,5.08-2.87,.55-3.47,.64-7.02-.07-10.48-.53-2.58-2.76-2.7-4.91-2.67-2.64,.04-1.79,2.04-1.89,3.44-.1,1.45-.02,2.9-.02,4.36Z"/><path class="e" d="M219.99,270.46c0-7.03,.05-14.06-.04-21.09-.03-1.99,.51-2.84,2.64-2.79,5.21,.13,10.43,.17,15.64,.05,2.2-.05,2.5,1.11,2.2,2.71-.3,1.59,1.31,4.26-2.17,4.25-2.55,0-5.1,.11-7.63-.04-2.41-.14-3.33,.86-3.05,3.18,.06,.48,.03,.97,.03,1.45-.01,7.99-.02,8.11,7.92,8.43,2.76,.11,2.38,1.67,2.34,3.38-.05,1.75,.59,3.59-2.44,3.71-7.86,.32-7.85,.44-7.86,8.5q0,5.11,5.07,5.12c1.21,0,2.42,0,3.64,0,4.02,0,5.25,1.73,4.16,5.6-.35,1.25-1.15,1.39-2.17,1.39-5.33,0-10.67-.07-16,.03-2.16,.04-2.28-1.17-2.27-2.79,.03-7.03,.01-14.06,.01-21.09Z"/><path class="g" d="M146.61,18.85c2.85,3.45,6.57,5.34,10.69,7.09,7.51,3.19,15.16,6.19,22.19,10.44,.72,.44,1.92,.72,2.11,1.31,1.36,4.47,2.77,.99,4.4-.33,.44,2.02,1.22,3.46,3.37,2.91-1.93,3.21-4.43,5.8-7.93,7.31-2.33-.4-4.6,1.62-7.01,0-3.09-2.06-6.66-1.4-10.09-1.5-1.21-.03-2.57,.39-3.66-.56,.79-1.72,3.03,.08,3.61-1.91-1.39-.48-2.66-1.07-3.91-1.78-3.99-2.26-7.92-4.78-12.19-6.32-3.96-1.43-5.34-3.88-5.38-7.66,.64-3.28,2.15-6.18,3.82-9.02Z"/><path class="l" d="M125.19,36.62c.68,3.71,.67,7.44,.27,11.18-.29,2.77-1.85,4.32-4.54,4.03-8-.87-15.66-2.79-22.14-7.97-5.19-4.15-6.94-9.88-7.6-16.14,0-3.29,0-6.59,0-9.88,1.09,1.95-.26,5.31,1.19,5.74,2.85,.84,4.36,3.31,6.91,4.26,6.38,2.37,12.92,4.3,18.9,7.72,5.05,2.88,5.17,2.67,5.74-2.92,.03-.33,.3-.64,.46-.96l.12,.19c.34,1.57-.46,3.31,.68,4.76Z"/><path class="e" d="M.07,269.99c0-6.79,.11-13.59-.06-20.38-.06-2.47,.76-3.13,3.1-3.05,4.85,.16,9.71,.16,14.56,.05,2.41-.06,2.55,1.35,2.35,3.04-.18,1.57,1.02,3.96-2.17,3.92-2.43-.03-4.86,.13-7.27-.01-2.15-.12-3.14,.54-3.02,2.83,.14,2.78,.17,5.58,.03,8.37-.11,2.26,.78,3.11,2.97,2.84,.72-.09,1.45-.04,2.18-.04,4.67-.01,5.58,1.21,4.7,5.8-.33,1.72-1.48,1.28-2.46,1.33q-7.35,.38-7.36,7.63c0,3.03-.12,6.08,.09,9.09,.2,2.98-1.53,3.04-3.67,2.91-1.97-.12-4.14,.62-4.03-2.86,.22-7.15,.07-14.31,.07-21.47Z"/><path class="k" d="M124.39,31.67c-.16,.32-.43,.63-.46,.96-.57,5.58-.69,5.8-5.74,2.92-5.99-3.42-12.52-5.35-18.9-7.72-2.56-.95-4.06-3.41-6.91-4.26-1.45-.43-.11-3.79-1.19-5.74,0,3.29,0,6.59,0,9.88-1.11-4.05-.72-8.19-.42-12.27,.21-2.81,2.03-4.42,4.94-4.1,8.17,.9,15.92,3.04,22.41,8.4,3.72,3.07,5.5,7.25,6.29,11.92Z"/><path class="k" d="M142.79,27.86c.04,3.78,1.42,6.23,5.38,7.66,4.27,1.54,8.2,4.07,12.19,6.32,1.25,.71,2.53,1.29,3.91,1.78-.58,1.99-2.82,.19-3.61,1.91,1.09,.95,2.45,.52,3.66,.56,3.43,.09,7-.56,10.09,1.5,2.41,1.61,4.68-.41,7.01,0-3.99,3.23-8.87,4.43-13.67,5.33-7.13,1.34-14.39,1.96-21.68,1.34-6.18-.52-8.48-3.21-7.64-9.29,.81-5.85,1.83-11.67,4.34-17.1Z"/><path class="m" d="M140.28,270.33c0-6.91,.18-13.83-.08-20.73-.13-3.36,1.79-3.04,3.89-3.01,2,.03,4.15-.6,4.1,2.84-.18,11.4-.03,22.8-.23,34.19-.05,2.85,.6,4.09,3.61,3.71,1.67-.21,3.41,.11,5.09-.07,2.81-.3,3.77,.67,3.75,3.62-.02,2.73-.74,3.61-3.48,3.49-4.6-.2-9.22-.16-13.82,0-2.28,.08-2.92-.77-2.88-2.94,.1-7.03,.04-14.07,.04-21.1h.03Z"/><path class="e" d="M103.76,273.9c0,5.94-.16,11.89,.07,17.82,.12,3.01-1.64,2.71-3.47,2.6-1.84-.11-4.27,.94-4.23-2.65,.13-11.4-.07-22.79,.14-34.19,.06-3.2-.72-4.48-3.98-3.92-2.71,.47-4.15-.21-4.14-3.55,.01-2.89,.99-3.51,3.55-3.45,5.57,.14,11.16,.22,16.73,.04,2.73-.09,3.22,1.03,3.15,3.41-.07,2.14,.02,3.73-2.96,3.65-4.8-.12-4.85,.06-4.91,4.95-.06,5.09-.01,10.18-.01,15.27h.06Z"/><path class="e" d="M250.52,273.75c0-5.34-.19-10.69,.07-16.01,.16-3.27-.75-4.79-4.16-4.18-3.14,.57-3.87-.93-3.82-3.82,.04-2.33,.58-3.25,3.04-3.18,5.82,.16,11.65,.21,17.47,.05,2.64-.07,3.01,1.11,2.89,3.29-.11,1.98,.25,3.77-2.84,3.77-5.18,0-5.16,.19-5.16,5.22,.02,10.68-.15,21.36,.11,32.03,.09,3.67-1.84,3.3-4.27,3.48-2.87,.21-3.47-.89-3.38-3.53,.19-5.7,.06-11.4,.06-17.11Z"/><path class="m" d="M85.36,270.52c0,6.78-.18,13.56,.08,20.32,.12,3.16-1.2,3.6-3.82,3.53-2.38-.06-4.13,.06-4.09-3.32,.17-13.79,.18-27.59,0-41.38-.05-3.58,2.07-3.02,4.22-3.15,2.43-.15,3.77,.31,3.68,3.3-.22,6.89-.07,13.79-.07,20.69Z"/><path class="j" d="M176.37,178.78c.54-.05,1.17,.14,1.46-.56,.65-.12,1.32-.21,1.52-1.01,.43-.04,.85-.09,1.28-.13-.18,2.28-3.07,1.62-3.7,3.45,1.45,1.46,3.31,.87,5.04,.94-4.82,2.14-9.91,3.06-15.44,3.42,3.2-2.56,7.3-3.1,9.84-6.13Z"/><path class="j" d="M180.6,177.11c.9-1.87,3.09-1.58,4.46-2.67,.19,3.69-2.65,2.31-4.46,2.67Z"/><path class="k" d="M125.19,36.62c-1.14-1.46-.34-3.19-.68-4.76,.7,1.52,.79,3.13,.68,4.76Z"/><path class="i" d="M227.06,130.55c-.53-.12-1.24-.24-.84-.98,.28-.51,.75-.17,1.03,.22l-.19,.77Z"/><path class="o" d="M212.76,150.34c.31-.26,.62-.52,.93-.79-.31,.26-.62,.52-.93,.79Z"/><path class="h" d="M74.3,112.1c-.28,.3-.55,.6-.83,.9,.28-.3,.56-.6,.83-.9Z"/><path class="j" d="M59.23,311.9c-.29,.23-.58,.46-.87,.69,.29-.23,.58-.46,.87-.69Z"/><path class="o" d="M84.45,105.63c-.12,.07-.24,.13-.37,.18l.13-.21,.24,.03Z"/><path class="d" d="M160.42,148.08c-.03-1.95-.06-3.9-.09-5.86,.46,0,.91,0,1.37,0,0,1.98,.22,3.98-.04,5.93-.2,1.52-.8-.09-1.24-.07Z"/><path class="c" d="M195.23,162.6c.1-.52,.08-1.14,.88-1.09,.08,0,.22,.14,.23,.23,.05,.8-.57,.78-1.1,.88h0Z"/><path class="f" d="M126.47,192.2c.89,1.6,3.52,1.64,3.28,3.96-.14,1.41-.62,2.5-1.97,2.49-1.4-.01-.87-1.41-.97-2.27-.15-1.39-.23-2.78-.34-4.18Z"/><path class="f" d="M161.02,214.3l-.77,.54-.18-.27c.31-.09,.63-.19,.94-.28l.02,.02Z"/><path class="i" d="M176.34,107.99c-.57-.82-1.15-1.63-1.72-2.45,.34-.64,.82-1.36,1.49-.54,.69,.84,1.49,1.9,.23,2.99Z"/><path class="i" d="M223.43,130.84c.2,.09,.52,.13,.58,.28,.06,.14-.14,.39-.23,.59-.2-.09-.52-.13-.58-.28-.06-.15,.14-.39,.23-.6Z"/><path class="i" d="M176.83,102.45c.2,.09,.52,.13,.58,.28,.06,.14-.14,.39-.23,.59-.2-.09-.52-.13-.58-.28-.06-.14,.14-.39,.23-.6Z"/><path class="i" d="M228.62,126.86c-.18-.39-.37-.78-.52-1.18-.01-.04,.26-.18,.4-.28,.05,.44,.1,.88,.15,1.33l-.03,.13Z"/><path class="f" d="M92.98,144.75c-.34,.75-.84,1.47-1.74,1.49-.76,.02-.81-.69-.78-1.3,.04-.89,.6-1.22,1.41-1.21,.63,0,1.17,.17,1.11,1.02Z"/><path class="c" d="M85.55,129.56c-1.23-2-1.09-3.16-.49-4.62,1.5,1.24,.9,2.51,.49,4.62Z"/><path class="c" d="M75.83,120.38c-.18,.84,.43,1.92-.73,2.53-1.16-.61-.55-1.68-.73-2.53h0c.49,0,.97,0,1.46,0h0Z"/><path class="c" d="M175.03,177.09c-.84,1.8-1.68,1.74-2.77,.95,.63-1.33,1.75-.66,2.77-.95Z"/><path class="c" d="M95.5,126.91l1.15,.55-.29,.43c-.3-.31-.6-.63-.9-.94l.03-.03Z"/><path class="f" d="M177.76,202.64l.94,.27c-.53,.67-.69,.02-.95-.27h0Z"/><path class="c" d="M89.35,128.53c-.38,.19-.77,.38-1.15,.57,0-.24,0-.48,0-.72h0c.38,.04,.76,.09,1.15,.15Z"/><path class="c" d="M88.2,128.39l-.3-.17,.31,.16h0Z"/><path class="c" d="M95.47,126.94l-.29-.18c.11,.05,.22,.1,.32,.15l-.03,.03Z"/><path class="h" d="M122.24,172.07c6.09-1.57,8.47-.33,10.11,4.71,.2,.61,.32,1.28-.38,1.51-.74,.25-1.4-.26-1.89-.79q-4.03-4.4-7.85-5.43Z"/><path class="n" d="M99.12,175.71c.18-.83-.43-1.88,.64-2.44,.11-.06,.6,.3,.66,.53,.29,1.09-.11,1.79-1.3,1.9h0Z"/><path class="o" d="M145.47,138.04c-.83,1.01-1.66,2.01-2.49,3.02-.37-.94-1.71-1.24-1.63-2.48,1.38-.15,2.66-1.05,4.12-.54Z"/><path class="o" d="M163.93,147c.63,.09,.65,.59,.65,1.05,0,.47-.04,1.03-.67,1.02-.64,0-.65-.57-.65-1.04,0-.47,.02-.97,.67-1.04Z"/><path class="h" d="M75.83,120.37c-.49,0-.97,0-1.46,0,.11-.53,.1-1.25,.89-1.08,.26,.06,.38,.71,.57,1.08Z"/><path class="h" d="M179.35,177.21c-.2,.79-.87,.88-1.52,1.01,.16-.86,.78-1.02,1.52-1.01Z"/><path class="o" d="M194.51,164.06l-.17,.3,.16-.3h0Z"/><path class="h" d="M73.64,117.46l.3,.17-.31-.17h0Z"/><path class="h" d="M99.07,133.16c-.23-.38-.46-.76-.69-1.15,.23,.38,.46,.76,.69,1.15Z"/><polygon class="o" points="141.35 138.58 141.05 138.41 141.19 138.27 141.35 138.58"/><path class="d" d="M140.43,85.88c1.29,1.09,.85,2.27,.63,3.87-1.74-1.37-.94-2.67-.63-3.87Z"/><path class="d" d="M136.99,89.79c.06-2.16,.11-4.33,.17-6.49,.82,2.19,1.03,4.36-.17,6.49Z"/><path class="o" d="M133.72,98.85c-.2,.08-.48,.28-.77,.3-.33,.02-.74-.16-.46-.6,.15-.24,.51-.45,.79-.47,.36-.03,.63,.21,.44,.77Z"/></svg>