<?xml version="1.0" encoding="UTF-8"?><svg id="a" xmlns="http://www.w3.org/2000/svg" viewBox="0 0 100 100"><path d="M100,21.78c-.41,1.25-.83,2.49-1.21,3.75-1.32,4.35-2.63,8.71-3.95,13.07-1.93,6.37-3.85,12.75-5.78,19.12-.79,2.61-1.57,5.22-2.34,7.83-.71,2.39-1.64,3.11-4.02,3.11-15.17,0-30.35,0-45.52,0-.66,0-1.32-.06-2.09-.1l-2.91,8.58c.45,.03,.8,.08,1.15,.08,16.45,0,32.91,0,49.36,.01,.55,0,1.13,.03,1.65,.21,1.23,.42,1.91,1.66,1.73,2.98-.18,1.35-1.1,2.3-2.4,2.42-.5,.05-1.01,.02-1.52,.03-.5,0-.99,0-1.56,0,3.48,5.75,3.24,11.01-1.93,15.22-3.38,2.76-7.76,2.36-10.97-.1-2.27-1.73-3.61-4.11-3.94-7.08-.33-2.94,.5-5.56,2.33-7.98h-20.9c2.12,2.87,2.92,5.98,2.06,9.43-.6,2.41-1.89,4.37-3.83,5.76-3.56,2.55-7.73,2.28-10.88-.02-2.32-1.69-3.71-4.11-4.06-7.09-.34-2.96,.42-5.63,2.39-8.14-.88,0-1.53,0-2.18,0-2.33-.03-3.49-1.78-2.7-4.12,1.53-4.55,3.04-9.1,4.64-13.62,.28-.79,.95-1.42,1.56-2.3-.57-1.78-1.22-3.84-1.9-5.89-1.3-3.97-2.62-7.94-3.92-11.92-1.68-5.12-3.35-10.25-5.02-15.37-1.36-4.16-2.71-8.33-4.06-12.49-.49-1.49-.96-2.99-1.49-4.47-.1-.27-.37-.57-.63-.67-3.98-1.68-7.95-3.36-11.96-4.97-1.42-.57-2.65-1.29-3.19-2.91v-1.53C1.36-.06,2.46-.55,5.18,.55c4.67,1.89,9.31,3.85,13.96,5.8,1.07,.45,1.78,1.24,2.16,2.44,.84,2.68,1.75,5.33,2.6,8.01,.18,.55,.39,.78,1,.78,23.61-.02,47.22,0,70.83-.04,2.01,0,3.54,.57,4.27,2.71v1.53Zm-73.6,2.63c.83,2.52,1.58,4.87,2.4,7.2,.08,.23,.51,.45,.78,.45,5.24,.03,10.49,0,15.73,.04,.66,0,.8-.26,.8-.89-.03-1.95-.05-3.9,0-5.85,.03-.85-.25-1.02-1-1.02-5.88,.03-11.76,.02-17.65,.02-.31,0-.61,.03-1.06,.05Zm65.97,.07c-.27-.05-.44-.12-.62-.12-5.8,0-11.61,0-17.41-.01-.55,0-.66,.25-.66,.77,.02,2.01,.04,4.02,0,6.02-.02,.73,.17,.97,.89,.96,4.52-.04,9.05-.02,13.58-.02,1.87,0,1.9,.01,2.49-1.84,.6-1.89,1.15-3.8,1.74-5.77Zm-39.82,23.16c.15,.05,.2,.08,.25,.08,4.63,0,9.26,0,13.89,.02,.6,0,.62-.33,.62-.8,0-2.37-.03-4.75,.01-7.12,.01-.73-.17-.97-.89-.96-4.36,.03-8.73,.02-13.09,.02-.26,0-.51,.03-.79,.05v8.72Zm-6.46-8.71h-14.95c.95,2.88,1.85,5.67,2.8,8.45,.06,.18,.41,.34,.63,.34,3.62,.02,7.23,0,10.85,.02,.53,0,.68-.21,.68-.75-.02-2.15,0-4.29,0-6.44,0-.53,0-1.06,0-1.62Zm41.89,.04c-.21-.06-.28-.09-.36-.09-4.44,0-8.89,0-13.33-.01-.52,0-.61,.25-.61,.72,.01,2.46,.02,4.92,0,7.38,0,.59,.17,.78,.73,.78,3.43-.02,6.87-.03,10.3,0,.54,0,.75-.24,.89-.72,.35-1.21,.73-2.42,1.09-3.63,.43-1.45,.86-2.9,1.3-4.42Zm-35.42-6.97c.15,.03,.25,.08,.35,.08,4.6,0,9.2,0,13.81,.02,.54,0,.6-.3,.6-.75,0-2.01-.04-4.01,.02-6.02,.02-.81-.25-.99-.96-.98-4.34,.03-8.67,.02-13.01,.02-.26,0-.51,0-.8,0v7.64Zm0,29.9c.42,0,.73,0,1.05,0,3.85,0,7.71,0,11.56,0q2.13,0,2.13-2.24c0-1.68,0-3.37,0-5.1h-14.75v7.34Zm-6.48-7.33h-9.83c.77,2.35,1.5,4.61,2.27,6.86,.07,.21,.42,.44,.64,.44,2.1,.03,4.2,.01,6.3,.03,.43,0,.63-.15,.62-.63-.01-2.2,0-4.4,0-6.7Zm27.62-.02c0,2.32-.01,4.58,.03,6.83,0,.17,.4,.49,.61,.49,2.05,.04,4.09,0,6.14,.03,.49,0,.72-.19,.84-.68,.2-.79,.45-1.56,.69-2.34,.42-1.42,.85-2.84,1.3-4.33h-9.6Zm-31.48,35.25c.05-2.53-1.77-4.55-4.15-4.61-2.34-.06-4.33,1.94-4.38,4.39-.05,2.51,1.86,4.63,4.22,4.68,2.33,.04,4.26-1.95,4.31-4.46Zm35.3-.05c.02-2.52-1.83-4.52-4.21-4.56-2.37-.04-4.33,2.02-4.32,4.54,0,2.48,1.93,4.53,4.26,4.53,2.34,0,4.25-2.02,4.27-4.51Z"/></svg>